<svg xmlns="http://www.w3.org/2000/svg" width="191.061" height="30.321" viewBox="0 0 191.061 30.321">
  <g id="그룹_1348" data-name="그룹 1348" transform="translate(-58.436 -48.447)">
    <g id="그룹_4" data-name="그룹 4" transform="translate(97.463 49.88)">
      <g id="그룹_1" data-name="그룹 1" transform="translate(81.197)">
        <path id="패스_1" data-name="패스 1" d="M122.78,52.861l2.425,8.744c.478,1.675.9,3.441,1.226,4.821h.06c.36-1.319.868-3.175,1.437-4.821l2.874-8.744h1.348l2.756,8.655c.6,1.764,1.048,3.562,1.406,4.91h.062c.3-1.348.748-3.116,1.317-4.85l2.543-8.714h1.47L136.912,68.13h-1.228l-2.723-8.353c-.6-1.735-1.11-3.831-1.5-5.45h-.06c-.418,1.675-.957,3.835-1.557,5.514L127,68.13h-1.259l-4.429-15.269Z" transform="translate(-121.312 -46.276)" fill="#5a5b5e" stroke="#5a5b5e" stroke-width="1"/>
        <path id="패스_2" data-name="패스 2" d="M140.1,68.157c-3.713,0-6.587-3.2-6.587-7.694,0-4.91,3.234-7.635,6.794-7.635,3.984,0,6.68,3,6.68,7.394,0,5.334-3.684,7.935-6.856,7.935Zm.089-1.2c3,0,5.361-2.99,5.361-6.676,0-2.634-1.468-6.257-5.272-6.257-3.681,0-5.328,3.261-5.328,6.347,0,3.6,2.274,6.585,5.21,6.585Z" transform="translate(-111.352 -46.303)" fill="#5a5b5e" stroke="#5a5b5e" stroke-width="1"/>
        <path id="패스_3" data-name="패스 3" d="M147.736,54.41a6.582,6.582,0,0,0-3.375,2.647,7.259,7.259,0,0,0-.736,3.314v7.786h-1.339V60.839a9.609,9.609,0,0,1,.674-3.828,6.32,6.32,0,0,1,1.84-2.487,7.228,7.228,0,0,1,2.6-1.288,11.489,11.489,0,0,1,3.07-.409h.585v1.181A15.2,15.2,0,0,0,147.736,54.41Z" transform="translate(-104.184 -46.303)" fill="#5a5b5e" stroke="#5a5b5e" stroke-width="1"/>
        <path id="패스_4" data-name="패스 4" d="M150.1,63.638h.058c.36-.451.928-1.11,1.377-1.59l5.975-6.213h1.737l-6.693,6.841,6.616,8.413h-1.735l-5.87-7.545L150.1,65.1V71.09h-1.439V49.236H150.1Z" transform="translate(-98.979 -49.236)" fill="#5a5b5e" stroke="#5a5b5e" stroke-width="1"/>
        <path id="패스_5" data-name="패스 5" d="M155.859,65.912a6.364,6.364,0,0,0,3.232.99c2.274,0,3.354-1.228,3.354-2.725,0-1.586-.957-2.654-3.023-3.5-2.365-.9-3.653-2.185-3.653-3.924,0-2.095,1.646-3.893,4.431-3.893a5.636,5.636,0,0,1,3.174.9l-.538,1.172a4.829,4.829,0,0,0-2.874-.87,2.513,2.513,0,0,0-2.787,2.487c0,1.5,1.019,2.125,2.965,2.936,2.336.925,3.713,2.324,3.713,4.509,0,2.456-1.917,4.106-4.85,4.106a7.055,7.055,0,0,1-3.653-.99Z" transform="translate(-93.516 -46.272)" fill="#5a5b5e" stroke="#5a5b5e" stroke-width="1"/>
      </g>
      <g id="그룹_2" data-name="그룹 2" transform="translate(0 1.444)">
        <path id="패스_6" data-name="패스 6" d="M81.351,60.338c0,4.662,2.558,6.518,5.575,6.518a8.512,8.512,0,0,0,4.049-.821l.367,1.126a9.676,9.676,0,0,1-4.6.943c-4.2,0-6.822-3.045-6.822-7.337,0-4.876,2.8-7.919,6.578-7.919,4.783,0,5.7,4.505,5.7,6.605a3.709,3.709,0,0,1-.062.885Zm9.321-1.157c.031-2.04-.823-5.116-4.356-5.116-3.228,0-4.6,2.863-4.872,5.116Z" transform="translate(-79.919 -47.73)" fill="#91af1f" stroke="#91af1f" stroke-width="1"/>
        <path id="패스_7" data-name="패스 7" d="M94.726,54.066c-5,.064-5.021,4.513-5.021,4.513v9.563H88.2V59.367q0-3.829,2-5.121a8.73,8.73,0,0,1,4.416-1.4,8.457,8.457,0,0,1,4.556,1.292q2.082,1.3,2.082,5.234v8.774h-.269c-.561,0-.362-.178-.718-.532a1.864,1.864,0,0,1-.536-1.381v-7.65A4.732,4.732,0,0,0,94.726,54.066Z" transform="translate(-73.156 -47.735)" fill="#91af1f" stroke="#91af1f" stroke-width="1"/>
        <path id="패스_8" data-name="패스 8" d="M95.336,75.281a4.239,4.239,0,0,0,3.047-1.221c.761-.912,1.1-2.069,1.1-5.94V55.148h1.461V69.1c0,2.616-.3,4.414-1.553,5.784a5.9,5.9,0,0,1-3.837,1.582Zm4.812-22.723a1.191,1.191,0,0,1-1.126-1.25,1.255,1.255,0,0,1,1.219-1.277,1.2,1.2,0,0,1,1.126,1.277,1.183,1.183,0,0,1-1.188,1.25Z" transform="translate(-67.329 -50.031)" fill="#91af1f" stroke="#91af1f" stroke-width="1"/>
        <path id="패스_9" data-name="패스 9" d="M107.133,68.137c-3.777,0-6.7-2.952-6.7-7.523,0-5,3.29-7.766,6.912-7.766,4.051,0,6.792,3.043,6.792,7.521,0,5.423-3.744,7.768-6.974,7.768Zm.091-1.221c3.047,0,5.452-2.74,5.452-6.487,0-2.678-1.49-6.364-5.361-6.364-3.744,0-5.421,3.321-5.421,6.456,0,3.655,2.313,6.395,5.3,6.395Z" transform="translate(-63.166 -47.73)" fill="#91af1f" stroke="#91af1f" stroke-width="1"/>
        <path id="패스_10" data-name="패스 10" d="M110.4,52.816l3.837,9.953c.4,1.039.794,2.224,1.068,3.139h.062c.3-.883.67-2.04,1.126-3.228l3.562-9.864h1.553L117.224,64.11c-1.766,4.538-3.016,7.248-4.934,8.923a8.791,8.791,0,0,1-2.56,1.526l-.456-1.221a7.926,7.926,0,0,0,2.56-1.613,11.608,11.608,0,0,0,2.436-3.688,1.86,1.86,0,0,0,.183-.634,2.1,2.1,0,0,0-.183-.643l-5.421-13.945Z" transform="translate(-56.293 -47.757)" fill="#91af1f" stroke="#91af1f" stroke-width="1"/>
      </g>
      <g id="그룹_3" data-name="그룹 3" transform="translate(69.662 12.337)">
        <rect id="사각형_1" data-name="사각형 1" width="6.626" height="0.954" fill="#96999c" stroke="#96999c" stroke-width="1"/>
        <rect id="사각형_2" data-name="사각형 2" width="6.626" height="0.954" transform="translate(0 3.13)" fill="#96999c" stroke="#96999c" stroke-width="1"/>
      </g>
    </g>
    <g id="그룹_5" data-name="그룹 5" transform="translate(58.436 48.447)">
      <path id="패스_11" data-name="패스 11" d="M60.316,64.725a5.865,5.865,0,0,1,0-8.607l4.3-4.3a5.863,5.863,0,0,0,0,8.605l6.456,6.453a6,6,0,0,1-8.605,0Zm4.3,4.3a6.005,6.005,0,0,0,8.607,0l6.456-6.455a6.175,6.175,0,0,1,0,8.609l-2.153,2.149a6.005,6.005,0,0,1-8.607,0Z" transform="translate(-58.436 -45.696)" fill="#91af1f"/>
      <path id="패스_12" data-name="패스 12" d="M61.988,56.718a6.138,6.138,0,0,1,1.884-4.3l2.151-2.155a6.014,6.014,0,0,1,8.607,0l4.3,4.307a5.942,5.942,0,0,0-4.369-1.817,6.019,6.019,0,0,0-4.236,1.817l-6.455,6.455A6.144,6.144,0,0,1,61.988,56.718ZM80.68,67.476a5.84,5.84,0,0,0-1.748-4.3l-6.455-6.455a6.005,6.005,0,0,1,8.607,0l2.153,2.151a6.168,6.168,0,0,1,0,8.607l-4.305,4.3A5.838,5.838,0,0,0,80.68,67.476Z" transform="translate(-55.535 -48.447)" fill="#aeb0b3"/>
    </g>
  </g>
</svg>
